<?xml version="1.0" encoding="UTF-8"?>
<svg width="160px" height="88px" viewBox="0 0 160 88" version="1.1" xmlns="http://www.w3.org/2000/svg" xmlns:xlink="http://www.w3.org/1999/xlink">
    <title>Logo/Break_Through_Tech_Primary_Logo</title>
    <g id="Symbols" stroke="none" stroke-width="1" fill="none" fill-rule="evenodd">
        <g id="Wrapper/Main-Nav---National" transform="translate(-80.000000, -26.000000)" fill-rule="nonzero">
            <g id="Break_Through_Tech_Primary_Logo" transform="translate(80.000000, 26.000000)">
                <polygon id="Path" fill="#C1F400" points="159.495123 87.9595783 121.294048 0.188192771 65.3278734 0.188192771 65.3278734 4.75385542 118.289558 4.75385542 152.178285 82.6179518 4.57883917 67.4485542 4.57883917 57.0608434 0 57.0608434 0 71.5675904"></polygon>
                <path d="M9.19356474,5.79090361 C9.74315835,5.55301205 10.2149981,5.21439759 10.5446213,4.75385542 C10.8469975,4.33042169 11.0310815,3.80361446 11.0310815,3.14493976 C11.0310815,2.29674699 10.7419966,1.66855422 10.2655049,1.19409639 C9.72654427,0.656024096 8.96694875,0.316746988 7.96080034,0.18753012 C7.66573437,0.150421687 7.356048,0.125240964 7.0164563,0.125240964 L6.50540734,0.125240964 L0.907128514,0.125240964 L0.907128514,0.18753012 L0.907128514,12.0006024 L4.57883917,12.0006024 L7.05034902,12.0006024 C9.8913559,12.0006024 11.5587445,10.7621084 11.5587445,8.72644578 C11.5587445,8.40638554 11.5142188,8.12608434 11.4477625,7.86566265 C11.1713043,6.78554217 10.3585437,6.17457831 9.19356474,5.79090361 M6.96860776,4.75385542 C6.83303691,4.79361446 6.67354179,4.81481928 6.50540734,4.82939759 C6.40240008,4.8386747 6.31467776,4.85921687 6.19970836,4.85921687 L4.57883917,4.85921687 L4.12294894,4.85921687 L4.12294894,2.77186747 L6.26682922,2.77186747 C6.35654523,2.77186747 6.42233697,2.79108434 6.50474278,2.79704819 C7.32149072,2.8586747 7.76408969,3.20457831 7.76408969,3.7896988 C7.76408969,4.29927711 7.47566934,4.60740964 6.96860776,4.75385542 M6.67487091,9.35463855 L4.57883917,9.35463855 L4.12294894,9.35463855 L4.12294894,7.16590361 L4.57883917,7.16590361 L6.50474278,7.16590361 L6.6409782,7.16590361 C7.51487856,7.16590361 8.00333238,7.43692771 8.17611876,7.8663253 C8.22197361,7.9803012 8.25786001,8.09957831 8.25786001,8.23475904 C8.25786001,8.96433735 7.67902563,9.35463855 6.67487091,9.35463855" id="Shape" fill="#000000"></path>
                <path d="M16.3768264,12.0012651 L16.3768264,8.40439759 L17.8229155,8.40439759 L20.221988,12.0012651 L24.0325923,12.0012651 L21.1949082,7.86566265 L21.1915854,7.86168675 C22.5187177,7.29909639 23.4291691,6.2686747 23.6052783,4.75451807 C23.6252151,4.57957831 23.6418292,4.40198795 23.6418292,4.21379518 C23.6418292,3.01042169 23.2842943,2.0939759 22.5871677,1.39819277 C21.9325731,0.745481928 20.9490199,0.325361446 19.6218876,0.188855422 C19.3281507,0.158373494 19.0377367,0.125903614 18.7074488,0.125903614 L14.7858625,0.125903614 L13.0759419,0.125903614 L13.0759419,0.188855422 L13.0759419,4.75451807 L13.0759419,7.86566265 L13.0759419,12.0012651 L14.7858625,12.0012651 L16.3768264,12.0012651 L16.3768264,12.0012651 Z M20.3243307,4.38343373 C20.3243307,4.5153012 20.3063875,4.63789157 20.2784758,4.75451807 C20.1189807,5.42843373 19.5122347,5.82668675 18.5545993,5.82668675 L16.3761618,5.82668675 L16.3761618,4.75451807 L16.3761618,2.9753012 L18.5366561,2.9753012 C19.6438181,2.9753012 20.3243307,3.44975904 20.3243307,4.38343373" id="Shape" fill="#000000"></path>
                <polygon id="Path" fill="#000000" points="34.9772806 9.20222892 28.5788679 9.20222892 28.5788679 7.86566265 28.5788679 7.31831325 34.2961035 7.31831325 34.2961035 4.75385542 34.2961035 4.72271084 28.5788679 4.72271084 28.5788679 2.92427711 34.8915519 2.92427711 34.8915519 0.188192771 34.8915519 0.125240964 25.3125406 0.125240964 25.3125406 0.188192771 25.3125406 4.75385542 25.3125406 7.86566265 25.3125406 12.0012651 34.9772806 12.0012651"></polygon>
                <path d="M40.033276,9.88012048 L44.6267355,9.88012048 L45.4946548,12.0012651 L49.0334529,12.0012651 L47.2803356,7.8663253 L45.961178,4.75451807 L44.0259705,0.188855422 L43.9635016,0.0410843373 L40.7809094,0.0410843373 L40.7184404,0.188855422 L38.7832329,4.75451807 L37.4640753,7.8663253 L35.7109581,12.0012651 L39.1819707,12.0012651 L40.033276,9.88012048 Z M42.3466198,3.94210843 L42.6656101,4.75385542 L43.6737522,7.31831325 L41.0028734,7.31831325 L42.0229776,4.75385542 L42.3466198,3.94210843 Z" id="Shape" fill="#000000"></path>
                <polygon id="Path" fill="#000000" points="53.4946644 8.93054217 54.4542934 7.86566265 54.7028399 7.59 54.8902467 7.86566265 57.6973609 12.0012651 61.6621438 12.0012651 58.8138267 7.86566265 57.0002343 5.23228916 57.4228963 4.75385542 61.453471 0.188192771 61.5086298 0.125903614 57.5950182 0.125903614 57.5425177 0.188192771 53.6561532 4.75385542 53.4946644 4.94337349 53.4946644 4.75385542 53.4946644 0.188192771 53.4946644 0.125903614 50.1944444 0.125903614 50.1944444 0.188192771 50.1944444 4.75385542 50.1944444 7.86566265 50.1944444 12.0012651 53.4946644 12.0012651"></polygon>
                <polygon id="Path" fill="#000000" points="0.243894626 19.8324699 0.243894626 22.716988 3.81658539 22.716988 3.81658539 31.708494 4.57883917 31.708494 7.11746988 31.708494 7.11746988 22.716988 10.6901606 22.716988 10.6901606 19.8324699 4.57883917 19.8324699"></polygon>
                <polygon id="Path" fill="#000000" points="19.6770463 24.2775301 15.4404571 24.2775301 15.4404571 19.8331325 14.7851979 19.8331325 12.1395726 19.8331325 12.1395726 31.7091566 14.7851979 31.7091566 15.4404571 31.7091566 15.4404571 27.1958434 19.6770463 27.1958434 19.6770463 31.7091566 22.9772662 31.7091566 22.9772662 19.8331325 19.6770463 19.8331325"></polygon>
                <path d="M28.3914611,28.1116265 L29.8375502,28.1116265 L32.2366227,31.708494 L36.0478916,31.708494 L33.2062201,27.5689157 C34.6868665,26.9407229 35.656464,25.7366867 35.656464,23.9210241 C35.656464,22.7176506 35.298929,21.8005422 34.6018024,21.104759 C33.8023331,20.3075904 32.5429862,19.8331325 30.7220836,19.8331325 L25.0905766,19.8331325 L25.0905766,31.708494 L28.3914611,31.708494 L28.3914611,28.1116265 L28.3914611,28.1116265 Z M28.3914611,22.6825301 L30.5519554,22.6825301 C31.6577883,22.6825301 32.3383008,23.1576506 32.3383008,24.0906627 C32.3383008,24.9905422 31.691681,25.533253 30.5685695,25.533253 L28.3907965,25.533253 L28.3907965,22.6825301 L28.3914611,22.6825301 Z" id="Shape" fill="#000000"></path>
                <path d="M43.3507745,19.5945783 C39.6757411,19.5945783 36.9191337,22.3604819 36.9191337,25.7704819 C36.9191337,29.2149398 39.6418483,31.9470482 43.3162172,31.9470482 C46.9919153,31.9470482 49.7485227,29.1811446 49.7485227,25.7704819 C49.7485227,22.3266867 47.025808,19.5945783 43.3507745,19.5945783 M43.3507745,28.9763855 C41.5471505,28.9763855 40.3050822,27.4840964 40.3050822,25.7698193 C40.3050822,24.0230723 41.5132578,22.563253 43.3162172,22.563253 C45.1371199,22.563253 46.3791882,24.0568675 46.3791882,25.7698193 C46.3791882,27.5178916 45.1710126,28.9763855 43.3507745,28.9763855" id="Shape" fill="#000000"></path>
                <path d="M59.0590505,26.5172892 C59.0590505,28.1792169 58.1917958,28.9604819 56.8646634,28.9604819 C55.5381956,28.9604819 54.6702763,28.1454217 54.6702763,26.4324699 L54.6702763,19.8331325 L51.3175559,19.8331325 L51.3175559,26.5007229 C51.3175559,30.2155422 53.4448221,31.9291566 56.8307707,31.9291566 C60.2160547,31.9291566 62.4111063,30.25 62.4111063,26.415241 L62.4111063,19.8331325 L59.0590505,19.8331325 L59.0590505,26.5172892 Z" id="Path" fill="#000000"></path>
                <path d="M70.1386451,27.1786145 L72.4865462,27.1786145 L72.4865462,28.6212048 C71.994105,28.943253 71.3813779,29.1128916 70.581244,29.1128916 C68.6925559,29.1128916 67.3488095,27.7378916 67.3488095,25.8208434 C67.3488095,23.9720482 68.6752773,22.5294578 70.3938373,22.5294578 C71.5681201,22.5294578 72.4187608,22.9376506 73.2694014,23.6493373 L75.2099254,21.324759 C73.9505785,20.2393373 72.4705967,19.5945783 70.3778877,19.5945783 C66.6855756,19.5945783 63.962861,22.3087952 63.962861,25.7704819 C63.962861,29.4018072 66.7360824,31.9463855 70.4450086,31.9463855 C72.6068321,31.9463855 74.3586202,31.1485542 75.6179671,30.113494 L75.6179671,24.7698795 L70.1386451,24.7698795 L70.1386451,27.1786145 L70.1386451,27.1786145 Z" id="Path" fill="#000000"></path>
                <polygon id="Path" fill="#000000" points="84.9956158 19.8324699 84.9956158 24.2775301 80.7590266 24.2775301 80.7590266 19.8324699 77.4581421 19.8324699 77.4581421 31.708494 80.7590266 31.708494 80.7590266 27.1958434 84.9956158 27.1958434 84.9956158 31.708494 88.2965003 31.708494 88.2965003 19.8324699"></polygon>
                <polygon id="Path" fill="#000000" points="0.243894626 39.5403614 0.243894626 42.4248795 3.81658539 42.4248795 3.81658539 51.4157229 4.57883917 51.4157229 7.11746988 51.4157229 7.11746988 42.4248795 10.6901606 42.4248795 10.6901606 39.5403614 4.57883917 39.5403614"></polygon>
                <polygon id="Path" fill="#000000" points="15.4065644 46.7334337 21.1231354 46.7334337 21.1231354 44.1378313 15.4065644 44.1378313 15.4065644 42.3393976 21.7185839 42.3393976 21.7185839 39.5403614 14.7858625 39.5403614 12.1395726 39.5403614 12.1395726 51.4157229 14.7858625 51.4157229 21.8036479 51.4157229 21.8036479 48.6173494 15.4065644 48.6173494"></polygon>
                <path d="M29.3271658,48.6504819 C27.6604418,48.6504819 26.4854944,47.2595783 26.4854944,45.4770482 C26.4854944,43.7137349 27.6597772,42.3049398 29.3271658,42.3049398 C30.4668914,42.3049398 31.2670252,42.8304217 31.9475378,43.6799398 L34.3638889,41.813253 C33.3085628,40.3540964 31.7946883,39.3018072 29.3617231,39.3018072 C25.754475,39.3018072 23.0829317,42.0160241 23.0829317,45.4770482 C23.0829317,49.0566867 25.8222605,51.6536145 29.2248231,51.6536145 C31.8624737,51.6536145 33.3763483,50.5178313 34.4994597,48.9731928 L32.0146586,47.2078916 C31.3002534,48.0746386 30.5692341,48.6504819 29.3271658,48.6504819" id="Path" fill="#000000"></path>
                <polygon id="Path" fill="#000000" points="43.4524527 43.984759 39.2158635 43.984759 39.2158635 39.5403614 35.914979 39.5403614 35.914979 51.4163855 39.2158635 51.4163855 39.2158635 46.9030723 43.4524527 46.9030723 43.4524527 51.4163855 46.7533372 51.4163855 46.7533372 39.5403614 43.4524527 39.5403614"></polygon>
            </g>
        </g>
    </g>
</svg>